<svg xmlns="http://www.w3.org/2000/svg" viewBox="0 0 120 120" role="img" aria-label="Foam Office - car wearing a tie">
  <!-- foam bubbles -->
  <circle cx="97" cy="16" r="9" fill="#BFE0FA"/>
  <circle cx="110" cy="30" r="5.5" fill="#8FC6F5"/>
  <circle cx="86" cy="7" r="4.5" fill="#8FC6F5"/>
  <!-- cabin -->
  <path d="M30 56 L36 30 Q38 22 46 22 L74 22 Q82 22 84 30 L90 56 Z" fill="#12325C"/>
  <!-- windscreen -->
  <path d="M38 52 L42.5 31 Q43.5 28 47 28 L73 28 Q76.5 28 77.5 31 L82 52 Z" fill="#BFE0FA"/>
  <!-- body -->
  <rect x="14" y="54" width="92" height="44" rx="13" fill="#12325C"/>
  <!-- headlights -->
  <circle cx="30" cy="72" r="7" fill="#FFFFFF"/>
  <circle cx="90" cy="72" r="7" fill="#FFFFFF"/>
  <!-- bumper line -->
  <rect x="22" y="88" width="26" height="4" rx="2" fill="#2B5A93"/>
  <rect x="72" y="88" width="26" height="4" rx="2" fill="#2B5A93"/>
  <!-- wheels -->
  <rect x="24" y="96" width="18" height="10" rx="5" fill="#081D38"/>
  <rect x="78" y="96" width="18" height="10" rx="5" fill="#081D38"/>
  <!-- collar -->
  <path d="M50 56 L60 64 L70 56 L70 60 L60 68 L50 60 Z" fill="#FFFFFF"/>
  <!-- tie knot -->
  <path d="M55 62 L65 62 L62 69 L58 69 Z" fill="#2F8BFF"/>
  <!-- tie blade -->
  <path d="M58 69 L62 69 L66 86 L60 95 L54 86 Z" fill="#2F8BFF"/>
  <path d="M55.2 78 L64.8 78 L65.6 81.5 L56 81.5 Z" fill="#12325C" opacity="0.35"/>
</svg>
